<svg xmlns="http://www.w3.org/2000/svg" viewBox="0 0 100 100" width="100" height="100">
  <line x1="6" y1="50" x2="94" y2="50" stroke="#8A7226" stroke-width="1.5" stroke-dasharray="3 4" opacity="0.6"></line>
  <path d="M6.00 50.00 L6.44 48.43 L6.88 46.87 L7.32 45.32 L7.76 43.78 L8.20 42.27 L8.64 40.80 L9.08 39.36 L9.52 37.96 L9.96 36.60 L10.40 35.31 L10.84 34.06 L11.28 32.89 L11.72 31.78 L12.16 30.74 L12.60 29.77 L13.04 28.89 L13.48 28.09 L13.92 27.38 L14.36 26.76 L14.80 26.22 L15.24 25.79 L15.68 25.44 L16.12 25.20 L16.56 25.05 L17.00 25.00 L17.44 25.05 L17.88 25.20 L18.32 25.44 L18.76 25.79 L19.20 26.22 L19.64 26.76 L20.08 27.38 L20.52 28.09 L20.96 28.89 L21.40 29.77 L21.84 30.74 L22.28 31.78 L22.72 32.89 L23.16 34.06 L23.60 35.31 L24.04 36.60 L24.48 37.96 L24.92 39.36 L25.36 40.80 L25.80 42.27 L26.24 43.78 L26.68 45.32 L27.12 46.87 L27.56 48.43 L28.00 50.00 L28.44 51.57 L28.88 53.13 L29.32 54.68 L29.76 56.22 L30.20 57.73 L30.64 59.20 L31.08 60.64 L31.52 62.04 L31.96 63.40 L32.40 64.69 L32.84 65.94 L33.28 67.11 L33.72 68.22 L34.16 69.26 L34.60 70.23 L35.04 71.11 L35.48 71.91 L35.92 72.62 L36.36 73.24 L36.80 73.78 L37.24 74.21 L37.68 74.56 L38.12 74.80 L38.56 74.95 L39.00 75.00 L39.44 74.95 L39.88 74.80 L40.32 74.56 L40.76 74.21 L41.20 73.78 L41.64 73.24 L42.08 72.62 L42.52 71.91 L42.96 71.11 L43.40 70.23 L43.84 69.26 L44.28 68.22 L44.72 67.11 L45.16 65.94 L45.60 64.69 L46.04 63.40 L46.48 62.04 L46.92 60.64 L47.36 59.20 L47.80 57.73 L48.24 56.22 L48.68 54.68 L49.12 53.13 L49.56 51.57 L50.00 50.00 L50.44 48.43 L50.88 46.87 L51.32 45.32 L51.76 43.78 L52.20 42.27 L52.64 40.80 L53.08 39.36 L53.52 37.96 L53.96 36.60 L54.40 35.31 L54.84 34.06 L55.28 32.89 L55.72 31.78 L56.16 30.74 L56.60 29.77 L57.04 28.89 L57.48 28.09 L57.92 27.38 L58.36 26.76 L58.80 26.22 L59.24 25.79 L59.68 25.44 L60.12 25.20 L60.56 25.05 L61.00 25.00 L61.44 25.05 L61.88 25.20 L62.32 25.44 L62.76 25.79 L63.20 26.22 L63.64 26.76 L64.08 27.38 L64.52 28.09 L64.96 28.89 L65.40 29.77 L65.84 30.74 L66.28 31.78 L66.72 32.89 L67.16 34.06 L67.60 35.31 L68.04 36.60 L68.48 37.96 L68.92 39.36 L69.36 40.80 L69.80 42.27 L70.24 43.78 L70.68 45.32 L71.12 46.87 L71.56 48.43 L72.00 50.00 L72.44 51.57 L72.88 53.13 L73.32 54.68 L73.76 56.22 L74.20 57.73 L74.64 59.20 L75.08 60.64 L75.52 62.04 L75.96 63.40 L76.40 64.69 L76.84 65.94 L77.28 67.11 L77.72 68.22 L78.16 69.26 L78.60 70.23 L79.04 71.11 L79.48 71.91 L79.92 72.62 L80.36 73.24 L80.80 73.78 L81.24 74.21 L81.68 74.56 L82.12 74.80 L82.56 74.95 L83.00 75.00 L83.44 74.95 L83.88 74.80 L84.32 74.56 L84.76 74.21 L85.20 73.78 L85.64 73.24 L86.08 72.62 L86.52 71.91 L86.96 71.11 L87.40 70.23 L87.84 69.26 L88.28 68.22 L88.72 67.11 L89.16 65.94 L89.60 64.69 L90.04 63.40 L90.48 62.04 L90.92 60.64 L91.36 59.20 L91.80 57.73 L92.24 56.22 L92.68 54.68 L93.12 53.13 L93.56 51.57 L94.00 50.00" fill="none" stroke="#E8C84A" stroke-width="9" stroke-linecap="butt" stroke-linejoin="round"></path>
</svg>