<svg xmlns="http://www.w3.org/2000/svg" viewBox="0 0 760 200" width="760" height="200">
  
  <rect width="760" height="200" fill="#0A0A0A"></rect>
  <g transform="translate(24,52) scale(0.96)"><g stroke="#E8C84A" stroke-width="4" fill="none" stroke-linecap="square"><path d="M10 22 L10 10 L22 10"></path><path d="M90 22 L90 10 L78 10"></path><path d="M10 78 L10 90 L22 90"></path><path d="M90 78 L90 90 L78 90"></path></g><path d="M6.00 50.00 L6.37 48.69 L6.73 47.39 L7.10 46.09 L7.47 44.80 L7.83 43.53 L8.20 42.27 L8.57 41.04 L8.93 39.83 L9.30 38.65 L9.67 37.50 L10.03 36.38 L10.40 35.31 L10.77 34.27 L11.13 33.27 L11.50 32.32 L11.87 31.42 L12.23 30.57 L12.60 29.77 L12.97 29.03 L13.33 28.35 L13.70 27.72 L14.07 27.16 L14.43 26.66 L14.80 26.22 L15.17 25.85 L15.53 25.55 L15.90 25.31 L16.27 25.14 L16.63 25.03 L17.00 25.00 L17.37 25.03 L17.73 25.14 L18.10 25.31 L18.47 25.55 L18.83 25.85 L19.20 26.22 L19.57 26.66 L19.93 27.16 L20.30 27.72 L20.67 28.35 L21.03 29.03 L21.40 29.77 L21.77 30.57 L22.13 31.42 L22.50 32.32 L22.87 33.27 L23.23 34.27 L23.60 35.31 L23.97 36.38 L24.33 37.50 L24.70 38.65 L25.07 39.83 L25.43 41.04 L25.80 42.27 L26.17 43.53 L26.53 44.80 L26.90 46.09 L27.27 47.39 L27.63 48.69 L28.00 50.00 L28.37 51.31 L28.73 52.61 L29.10 53.91 L29.47 55.20 L29.83 56.47 L30.20 57.73 L30.57 58.96 L30.93 60.17 L31.30 61.35 L31.67 62.50 L32.03 63.62 L32.40 64.69 L32.77 65.73 L33.13 66.73 L33.50 67.68 L33.87 68.58 L34.23 69.43 L34.60 70.23 L34.97 70.97 L35.33 71.65 L35.70 72.28 L36.07 72.84 L36.43 73.34 L36.80 73.78 L37.17 74.15 L37.53 74.45 L37.90 74.69 L38.27 74.86 L38.63 74.97 L39.00 75.00 L39.37 74.97 L39.73 74.86 L40.10 74.69 L40.47 74.45 L40.83 74.15 L41.20 73.78 L41.57 73.34 L41.93 72.84 L42.30 72.28 L42.67 71.65 L43.03 70.97 L43.40 70.23 L43.77 69.43 L44.13 68.58 L44.50 67.68 L44.87 66.73 L45.23 65.73 L45.60 64.69 L45.97 63.62 L46.33 62.50 L46.70 61.35 L47.07 60.17 L47.43 58.96 L47.80 57.73 L48.17 56.47 L48.53 55.20 L48.90 53.91 L49.27 52.61 L49.63 51.31 L50.00 50.00 L50.37 47.39 L50.73 44.80 L51.10 42.27 L51.47 39.83 L51.83 37.50 L52.20 35.31 L52.57 33.27 L52.93 31.42 L53.30 29.77 L53.67 28.35 L54.03 27.16 L54.40 26.22 L54.77 25.55 L55.13 25.14 L55.50 25.00 L55.87 25.14 L56.23 25.55 L56.60 26.22 L56.97 27.16 L57.33 28.35 L57.70 29.77 L58.07 31.42 L58.43 33.27 L58.80 35.31 L59.17 37.50 L59.53 39.83 L59.90 42.27 L60.27 44.80 L60.63 47.39 L61.00 50.00 L61.37 52.61 L61.73 55.20 L62.10 57.73 L62.47 60.17 L62.83 62.50 L63.20 64.69 L63.57 66.73 L63.93 68.58 L64.30 70.23 L64.67 71.65 L65.03 72.84 L65.40 73.78 L65.77 74.45 L66.13 74.86 L66.50 75.00 L66.87 74.86 L67.23 74.45 L67.60 73.78 L67.97 72.84 L68.33 71.65 L68.70 70.23 L69.07 68.58 L69.43 66.73 L69.80 64.69 L70.17 62.50 L70.53 60.17 L70.90 57.73 L71.27 55.20 L71.63 52.61 L72.00 50.00 L72.37 47.39 L72.73 44.80 L73.10 42.27 L73.47 39.83 L73.83 37.50 L74.20 35.31 L74.57 33.27 L74.93 31.42 L75.30 29.77 L75.67 28.35 L76.03 27.16 L76.40 26.22 L76.77 25.55 L77.13 25.14 L77.50 25.00 L77.87 25.14 L78.23 25.55 L78.60 26.22 L78.97 27.16 L79.33 28.35 L79.70 29.77 L80.07 31.42 L80.43 33.27 L80.80 35.31 L81.17 37.50 L81.53 39.83 L81.90 42.27 L82.27 44.80 L82.63 47.39 L83.00 50.00 L83.37 52.61 L83.73 55.20 L84.10 57.73 L84.47 60.17 L84.83 62.50 L85.20 64.69 L85.57 66.73 L85.93 68.58 L86.30 70.23 L86.67 71.65 L87.03 72.84 L87.40 73.78 L87.77 74.45 L88.13 74.86 L88.50 75.00 L88.87 74.86 L89.23 74.45 L89.60 73.78 L89.97 72.84 L90.33 71.65 L90.70 70.23 L91.07 68.58 L91.43 66.73 L91.80 64.69 L92.17 62.50 L92.53 60.17 L92.90 57.73 L93.27 55.20 L93.63 52.61 L94.00 50.00" fill="none" stroke="#E8C84A" stroke-width="9" stroke-linecap="butt" stroke-linejoin="round"></path></g>
  <text x="150" y="112" class="wm" font-size="58" letter-spacing="2" fill="#E8C84A">MINUTE<tspan fill="#F4F4F0">MODEM</tspan></text>
  <text x="152" y="146" class="sb" font-size="16" letter-spacing="7" fill="#8A7226">HF · ALE · TACTICAL DATA</text>
</svg>